<svg width="32" height="32" viewBox="0 0 32 32" fill="none" xmlns="http://www.w3.org/2000/svg">
<path d="M21.9999 9.99998V10.0133M5.33325 10.6666C5.33325 9.25216 5.89515 7.8956 6.89535 6.89541C7.89554 5.89522 9.2521 5.33331 10.6666 5.33331H21.3333C22.7477 5.33331 24.1043 5.89522 25.1045 6.89541C26.1047 7.8956 26.6666 9.25216 26.6666 10.6666V21.3333C26.6666 22.7478 26.1047 24.1044 25.1045 25.1045C24.1043 26.1047 22.7477 26.6666 21.3333 26.6666H10.6666C9.2521 26.6666 7.89554 26.1047 6.89535 25.1045C5.89515 24.1044 5.33325 22.7478 5.33325 21.3333V10.6666ZM11.9999 16C11.9999 17.0608 12.4213 18.0783 13.1715 18.8284C13.9216 19.5786 14.9391 20 15.9999 20C17.0608 20 18.0782 19.5786 18.8283 18.8284C19.5785 18.0783 19.9999 17.0608 19.9999 16C19.9999 14.9391 19.5785 13.9217 18.8283 13.1716C18.0782 12.4214 17.0608 12 15.9999 12C14.9391 12 13.9216 12.4214 13.1715 13.1716C12.4213 13.9217 11.9999 14.9391 11.9999 16Z" stroke="#212529" stroke-width="2" stroke-linecap="round" stroke-linejoin="round"/>
</svg>
