<svg width="32" height="32" viewBox="0 0 32 32" fill="none" xmlns="http://www.w3.org/2000/svg">
<path d="M10.6666 14.6666V21.3333M10.6666 10.6666V10.68M15.9999 21.3333V14.6666M21.3333 21.3333V17.3333C21.3333 16.6261 21.0523 15.9478 20.5522 15.4477C20.0521 14.9476 19.3738 14.6666 18.6666 14.6666C17.9593 14.6666 17.2811 14.9476 16.781 15.4477C16.2809 15.9478 15.9999 16.6261 15.9999 17.3333M5.33325 7.99998C5.33325 7.29274 5.6142 6.61446 6.1143 6.11436C6.6144 5.61426 7.29267 5.33331 7.99992 5.33331H23.9999C24.7072 5.33331 25.3854 5.61426 25.8855 6.11436C26.3856 6.61446 26.6666 7.29274 26.6666 7.99998V24C26.6666 24.7072 26.3856 25.3855 25.8855 25.8856C25.3854 26.3857 24.7072 26.6666 23.9999 26.6666H7.99992C7.29267 26.6666 6.6144 26.3857 6.1143 25.8856C5.6142 25.3855 5.33325 24.7072 5.33325 24V7.99998Z" stroke="#212529" stroke-width="2" stroke-linecap="round" stroke-linejoin="round"/>
</svg>
