<svg width="32" height="32" viewBox="0 0 32 32" fill="none" xmlns="http://www.w3.org/2000/svg">
<path d="M2.66675 10.6666C2.66675 9.25216 3.22865 7.8956 4.22885 6.89541C5.22904 5.89522 6.58559 5.33331 8.00008 5.33331H24.0001C25.4146 5.33331 26.7711 5.89522 27.7713 6.89541C28.7715 7.8956 29.3334 9.25216 29.3334 10.6666V21.3333C29.3334 22.7478 28.7715 24.1044 27.7713 25.1045C26.7711 26.1047 25.4146 26.6666 24.0001 26.6666H8.00008C6.58559 26.6666 5.22904 26.1047 4.22885 25.1045C3.22865 24.1044 2.66675 22.7478 2.66675 21.3333V10.6666Z" stroke="#212529" stroke-width="2" stroke-linecap="round" stroke-linejoin="round"/>
<path d="M13.3334 12L20.0001 16L13.3334 20V12Z" stroke="#212529" stroke-width="2" stroke-linecap="round" stroke-linejoin="round"/>
</svg>
