<svg width="86" height="18" viewBox="0 0 86 18" fill="none" xmlns="http://www.w3.org/2000/svg">
<path d="M16.8038 9.45568L8.06148 0.71344H16.8038V9.45568ZM11.5186 17.0177L16.8038 11.7338V17.0177H11.5186ZM5.78593 0.71344L0.5 5.99868V0.71344H5.78593ZM0.5 17.0177V9.28829C1.50374 7.84367 3.17501 6.89897 5.06565 6.89897C8.13446 6.89897 10.6218 9.38691 10.6218 12.4563C10.6218 14.3445 9.67995 16.0134 8.23841 17.0177H0.5Z" fill="#212529" stroke="#212529"/>
<path d="M24.8368 15.1872L24.8944 14.771L25.464 10.6489L25.5077 10.333H25.8267H26.6861C27.4631 10.333 28.2788 10.3818 28.9216 10.65C29.2501 10.787 29.5475 10.9868 29.7702 11.2782C29.9944 11.5715 30.1251 11.9346 30.1554 12.3679L30.1555 12.3681C30.2086 13.135 30.0465 13.7758 29.5979 14.2574L24.8368 15.1872ZM24.8368 15.1872H25.257M24.8368 15.1872H25.257M25.257 15.1872H26.1319C26.7706 15.1872 27.4343 15.1629 28.03 15.0412M25.257 15.1872L28.03 15.0412M28.03 15.0412C28.624 14.9198 29.1916 14.6936 29.5979 14.2574L28.03 15.0412ZM31.613 3.07654L31.613 3.07654C32.5288 3.65535 33.0432 4.54804 33.1296 5.77988C33.2333 7.26815 32.265 8.61037 30.7944 9.06289L29.6648 9.41047L30.7931 9.76231C31.951 10.1234 32.6931 11.1196 32.8009 12.6711L32.8009 12.6712C32.8829 13.846 32.5789 14.775 31.9301 15.4723C30.9236 16.5534 29.0304 17.1577 26.1784 17.1577H22.0698L24.1364 2.3246H28.4696C29.7721 2.3246 30.8522 2.59566 31.613 3.07654ZM30.0198 7.61556L30.0199 7.6155C30.4096 7.19665 30.5648 6.64637 30.5211 6.02399C30.495 5.648 30.3884 5.33071 30.1993 5.07421C30.0104 4.81815 29.7579 4.64812 29.4815 4.53537C28.9476 4.31763 28.2714 4.29488 27.6422 4.29488H26.695H26.3783L26.3327 4.60826L25.8282 8.07472L25.7672 8.49355H26.1904H27.2171C27.65 8.49355 28.1691 8.45952 28.6643 8.33833C29.1553 8.21818 29.6587 8.0036 30.0198 7.61556ZM34.4301 17.1577L36.5824 2.3246H40.1099L43.9594 13.2939L44.6671 13.2253L46.2506 2.3246H48.6989L46.5256 17.1577H42.9341L39.1431 6.09795L38.4341 6.16675L36.9216 17.1577H34.4301ZM60.3246 3.55995L60.5354 3.26062L60.3246 3.55995C61.7974 4.59706 62.6514 6.28456 62.8162 8.64555L62.8162 8.64563C62.9176 10.095 62.7935 12.7637 60.9406 14.7548C59.4765 16.328 57.2172 17.1577 54.1569 17.1577H49.2597L51.3486 2.3246H55.7484C57.6447 2.3246 59.1754 2.7506 60.3246 3.55995ZM52.2383 14.7706L52.1802 15.1872H52.6009H53.8476C55.9008 15.1872 57.5216 14.636 58.5945 13.4832L58.3265 13.2338L58.5945 13.4832C59.7316 12.2614 60.1862 10.4477 60.027 8.16792L60.027 8.16788C59.9426 6.96169 59.4138 5.97849 58.5135 5.30465C57.6219 4.63732 56.396 4.29488 54.9423 4.29488H54.0166H53.6979L53.654 4.61046L52.2383 14.7706ZM68.7172 4.29488H68.3986L68.3546 4.61044L67.8713 8.0769L67.8132 8.49355H68.2339H73.1524L72.8963 10.4638H67.8573H67.5387L67.4947 10.7794L66.9379 14.7705L66.8798 15.1872H67.3005H72.9154L72.6234 17.1577H63.9601L66.0481 2.3246H74.6055L74.366 4.29488H68.7172ZM84.9082 2.66141L84.4608 4.72248C83.4846 4.2832 82.3843 4.0326 81.3924 4.0326C81.0338 4.0326 80.617 4.07969 80.2224 4.19589C79.8317 4.31094 79.4328 4.50266 79.1437 4.81313L79.1435 4.8133C78.8355 5.14453 78.7005 5.55998 78.7326 6.02042C78.7759 6.64008 79.1088 7.1038 79.5411 7.47864C79.9589 7.84083 80.5069 8.15139 81.0498 8.45914L81.0719 8.47163L81.0719 8.47166C82.575 9.32326 84.2366 10.2849 84.3956 12.562L84.3956 12.5621C84.4935 13.9641 84.1472 15.0543 83.4083 15.8483C82.4769 16.8492 80.8732 17.4205 78.6963 17.4205C77.4424 17.4205 76.0434 17.1618 74.5337 16.6421L75.0346 14.4894C76.1038 14.96 77.3794 15.45 78.693 15.45C79.6539 15.45 80.5411 15.148 81.0889 14.5593L81.089 14.5592C81.5214 14.0943 81.7048 13.5002 81.6577 12.8273C81.6085 12.1249 81.264 11.6118 80.7936 11.2021C80.3434 10.8098 79.754 10.4926 79.1721 10.1793L79.1484 10.1666L78.9749 10.4889L79.1484 10.1666C77.6425 9.35599 76.1521 8.53308 76.0064 6.4395L76.0064 6.4393C75.923 5.25102 76.2398 4.29478 76.9222 3.56144L76.9222 3.5614C77.8005 2.61722 79.2841 2.06197 81.1486 2.06197C82.5682 2.06197 83.8304 2.26633 84.9082 2.66141ZM83.6763 16.0977C84.4995 15.2131 84.8641 14.015 84.7608 12.5365L83.6763 16.0977Z" fill="#212529" stroke="#212529" stroke-width="0.732215"/>
</svg>
