<svg width="28" height="24" viewBox="0 0 28 24" fill="none" xmlns="http://www.w3.org/2000/svg">
<g clip-path="url(#clip0_2008_247)">
<path d="M4.92767 22.5306V21.1232C4.93587 21.0048 4.91876 20.886 4.87747 20.7748C4.83617 20.6636 4.77165 20.5624 4.6882 20.4781C4.60475 20.3937 4.50428 20.3281 4.39349 20.2857C4.2827 20.2432 4.16413 20.2248 4.04569 20.2318C3.89065 20.2216 3.73572 20.2533 3.59708 20.3234C3.45845 20.3935 3.34118 20.4996 3.25753 20.6306C3.18128 20.5036 3.07217 20.3995 2.94172 20.3293C2.81126 20.2591 2.66429 20.2254 2.51629 20.2318C2.38728 20.2253 2.2588 20.2526 2.1436 20.311C2.02839 20.3694 1.93045 20.4569 1.85949 20.5649V20.2881H1.37158V22.5306H1.86418V21.2967C1.8537 21.22 1.86029 21.142 1.88349 21.0682C1.90668 20.9943 1.9459 20.9265 1.99834 20.8696C2.05078 20.8127 2.11515 20.768 2.18684 20.7389C2.25854 20.7097 2.33579 20.6968 2.41307 20.7009C2.73678 20.7009 2.90098 20.912 2.90098 21.292V22.54H3.39358V21.2967C3.38353 21.2201 3.39042 21.1422 3.41377 21.0686C3.43712 20.9949 3.47636 20.9273 3.52871 20.8705C3.58106 20.8137 3.64525 20.769 3.71675 20.7397C3.78824 20.7104 3.8653 20.6972 3.94248 20.7009C4.27557 20.7009 4.43507 20.912 4.43507 21.292V22.54L4.92767 22.5306ZM12.2158 20.2881H11.4135V19.6078H10.9209V20.2881H10.4753V20.7338H10.9303V21.7659C10.9303 22.2866 11.1321 22.5963 11.7091 22.5963C11.9247 22.597 12.1361 22.5368 12.319 22.4227L12.1782 22.0051C12.0474 22.0832 11.8989 22.1268 11.7466 22.1318C11.5121 22.1318 11.4229 21.9817 11.4229 21.7565V20.7338H12.2205L12.2158 20.2881ZM16.3771 20.2318C16.2581 20.2283 16.1404 20.2569 16.0364 20.3147C15.9323 20.3725 15.8458 20.4573 15.7859 20.5602V20.2881H15.3027V22.5306H15.7906V21.2733C15.7906 20.9027 15.9501 20.6962 16.2598 20.6962C16.3641 20.6948 16.4677 20.7139 16.5647 20.7525L16.7148 20.2834C16.6034 20.2435 16.486 20.2229 16.3677 20.2224L16.3771 20.2318ZM10.0859 20.4664C9.8097 20.3021 9.49217 20.2207 9.17105 20.2318C8.60339 20.2318 8.23277 20.5039 8.23277 20.9496C8.23277 21.3155 8.50487 21.5407 9.00685 21.6111L9.24142 21.6439C9.50883 21.6814 9.6355 21.7518 9.6355 21.8785C9.6355 22.0521 9.45723 22.1506 9.12414 22.1506C8.85621 22.1583 8.59347 22.0757 8.3782 21.916L8.14363 22.296C8.42784 22.4944 8.76825 22.5964 9.11476 22.5869C9.76217 22.5869 10.1375 22.2819 10.1375 21.855C10.1375 21.4281 9.84192 21.2545 9.35402 21.1841L9.11945 21.1513C8.90833 21.1232 8.73944 21.0809 8.73944 20.9308C8.73944 20.7807 8.89895 20.6681 9.16636 20.6681C9.41352 20.671 9.65581 20.7372 9.87007 20.8604L10.0859 20.4664ZM23.1538 20.2318C23.0348 20.2283 22.9171 20.2569 22.8131 20.3147C22.7091 20.3725 22.6226 20.4573 22.5627 20.5602V20.2881H22.0795V22.5306H22.5674V21.2733C22.5674 20.9027 22.7269 20.6962 23.0365 20.6962C23.1409 20.6948 23.2445 20.7139 23.3415 20.7525L23.4916 20.2834C23.3802 20.2435 23.2628 20.2229 23.1444 20.2224L23.1538 20.2318ZM16.8673 21.4046C16.8615 21.5622 16.8887 21.7193 16.947 21.8658C17.0054 22.0123 17.0937 22.145 17.2064 22.2554C17.319 22.3658 17.4534 22.4514 17.601 22.5069C17.7486 22.5624 17.9062 22.5864 18.0636 22.5775C18.3566 22.5924 18.6445 22.497 18.8705 22.3101L18.636 21.916C18.4673 22.0446 18.2616 22.1154 18.0495 22.1177C17.8692 22.1031 17.701 22.0212 17.5783 21.8882C17.4556 21.7552 17.3875 21.5809 17.3875 21.3999C17.3875 21.219 17.4556 21.0447 17.5783 20.9117C17.701 20.7787 17.8692 20.6967 18.0495 20.6822C18.2616 20.6845 18.4673 20.7553 18.636 20.8839L18.8705 20.4898C18.6445 20.3029 18.3566 20.2075 18.0636 20.2224C17.9062 20.2135 17.7486 20.2375 17.601 20.293C17.4534 20.3485 17.319 20.4341 17.2064 20.5445C17.0937 20.6549 17.0054 20.7876 16.947 20.9341C16.8887 21.0806 16.8615 21.2377 16.8673 21.3953V21.4046ZM21.4367 21.4046V20.2881H20.9488V20.5602C20.866 20.4536 20.759 20.3682 20.6366 20.3111C20.5142 20.254 20.3801 20.2268 20.2451 20.2318C19.9341 20.2318 19.6357 20.3554 19.4158 20.5753C19.1958 20.7953 19.0723 21.0936 19.0723 21.4046C19.0723 21.7157 19.1958 22.014 19.4158 22.234C19.6357 22.4539 19.9341 22.5775 20.2451 22.5775C20.3801 22.5825 20.5142 22.5553 20.6366 22.4982C20.759 22.4411 20.866 22.3557 20.9488 22.2491V22.5212H21.4367V21.4046ZM19.6212 21.4046C19.6289 21.2726 19.6752 21.1458 19.7541 21.0397C19.8331 20.9337 19.9413 20.853 20.0655 20.8077C20.1898 20.7624 20.3245 20.7544 20.4532 20.7846C20.582 20.8149 20.699 20.8822 20.7899 20.9782C20.8809 21.0742 20.9418 21.1947 20.9652 21.3248C20.9885 21.455 20.9733 21.5891 20.9214 21.7107C20.8694 21.8323 20.7831 21.9361 20.6729 22.0092C20.5628 22.0824 20.4336 22.1217 20.3014 22.1224C20.2085 22.1236 20.1164 22.1055 20.0309 22.0694C19.9453 22.0332 19.8682 21.9798 19.8043 21.9123C19.7404 21.8449 19.6911 21.765 19.6596 21.6776C19.6281 21.5903 19.615 21.4973 19.6212 21.4046ZM13.7334 20.2318C13.4224 20.2361 13.1258 20.3639 12.9089 20.5869C12.6921 20.8099 12.5727 21.11 12.577 21.4211C12.5814 21.7321 12.7091 22.0287 12.9321 22.2456C13.1552 22.4625 13.4552 22.5818 13.7663 22.5775C14.1038 22.5948 14.4357 22.4861 14.6975 22.2725L14.463 21.9113C14.2777 22.0599 14.0483 22.1424 13.8109 22.1459C13.6496 22.1597 13.4892 22.1102 13.364 22.0077C13.2387 21.9051 13.1583 21.7578 13.14 21.597H14.8054C14.8054 21.536 14.8054 21.475 14.8054 21.4093C14.8054 20.7056 14.3691 20.2365 13.7405 20.2365L13.7334 20.2318ZM13.7334 20.6681C13.8065 20.6665 13.8791 20.6794 13.9471 20.7059C14.0151 20.7324 14.0773 20.772 14.13 20.8226C14.1827 20.8731 14.225 20.9335 14.2543 21.0004C14.2837 21.0673 14.2996 21.1393 14.3011 21.2123H13.1283C13.1368 21.0617 13.2039 20.9204 13.3152 20.8187C13.4266 20.717 13.5733 20.6629 13.7241 20.6681H13.7334ZM25.9569 21.4093V19.3873H25.4878V20.5602C25.4049 20.4536 25.2979 20.3682 25.1755 20.3111C25.0532 20.254 24.919 20.2268 24.7841 20.2318C24.473 20.2318 24.1747 20.3554 23.9547 20.5753C23.7348 20.7953 23.6112 21.0936 23.6112 21.4046C23.6112 21.7157 23.7348 22.014 23.9547 22.234C24.1747 22.4539 24.473 22.5775 24.7841 22.5775C24.919 22.5825 25.0532 22.5553 25.1755 22.4982C25.2979 22.4411 25.4049 22.3557 25.4878 22.2491V22.5212H25.9569V21.4093ZM26.7709 22.2045C26.8014 22.2041 26.8317 22.2097 26.86 22.2209C26.887 22.2319 26.9116 22.2478 26.9327 22.2679C26.9533 22.2881 26.97 22.3119 26.982 22.3382C26.9939 22.3656 27 22.3952 27 22.425C27 22.4549 26.9939 22.4844 26.982 22.5118C26.97 22.5381 26.9533 22.562 26.9327 22.5822C26.9116 22.6022 26.887 22.6181 26.86 22.6291C26.8319 22.6415 26.8016 22.6479 26.7709 22.6479C26.7264 22.6475 26.683 22.6346 26.6456 22.6105C26.6082 22.5864 26.5784 22.5522 26.5598 22.5118C26.548 22.4844 26.542 22.4549 26.542 22.425C26.542 22.3952 26.548 22.3657 26.5598 22.3382C26.5717 22.3119 26.5884 22.2881 26.609 22.2679C26.6301 22.2478 26.6548 22.2319 26.6817 22.2209C26.7123 22.2088 26.7451 22.2032 26.7779 22.2045H26.7709ZM26.7709 22.6009C26.7943 22.6011 26.8175 22.5963 26.8389 22.5869C26.8591 22.5779 26.8774 22.5651 26.8929 22.5493C26.9222 22.5173 26.9385 22.4755 26.9385 22.4321C26.9385 22.3886 26.9222 22.3468 26.8929 22.3148C26.8774 22.2989 26.8591 22.2862 26.8389 22.2772C26.8174 22.2679 26.7943 22.2631 26.7709 22.2632C26.7475 22.2633 26.7244 22.2681 26.7028 22.2772C26.6818 22.2859 26.6626 22.2986 26.6466 22.3148C26.6172 22.3468 26.6009 22.3886 26.6009 22.4321C26.6009 22.4755 26.6172 22.5173 26.6466 22.5493C26.6627 22.5654 26.6818 22.5782 26.7028 22.5869C26.7265 22.5971 26.7522 22.6019 26.7779 22.6009H26.7709ZM26.785 22.3218C26.8068 22.3207 26.8284 22.3274 26.8459 22.3406C26.8531 22.3465 26.8588 22.3541 26.8625 22.3626C26.8661 22.3712 26.8677 22.3805 26.8671 22.3898C26.8674 22.3976 26.8661 22.4054 26.8633 22.4127C26.8604 22.4199 26.8561 22.4265 26.8506 22.4321C26.837 22.4444 26.8197 22.4518 26.8014 22.4532L26.8694 22.5306H26.8154L26.7521 22.4532H26.731V22.5306H26.6864V22.3242L26.785 22.3218ZM26.7333 22.3617V22.418H26.785C26.7941 22.4207 26.8039 22.4207 26.8131 22.418C26.8147 22.4147 26.8156 22.4111 26.8156 22.4074C26.8156 22.4038 26.8147 22.4001 26.8131 22.3969C26.8147 22.3936 26.8156 22.39 26.8156 22.3863C26.8156 22.3826 26.8147 22.379 26.8131 22.3758C26.8039 22.373 26.7941 22.373 26.785 22.3758L26.7333 22.3617ZM24.1531 21.4093C24.1608 21.2773 24.2071 21.1505 24.286 21.0444C24.365 20.9383 24.4732 20.8577 24.5975 20.8124C24.7217 20.767 24.8564 20.759 24.9851 20.7893C25.1139 20.8196 25.2309 20.8869 25.3218 20.9829C25.4128 21.0789 25.4737 21.1994 25.4971 21.3295C25.5204 21.4597 25.5052 21.5938 25.4533 21.7154C25.4013 21.837 25.315 21.9408 25.2048 22.0139C25.0947 22.0871 24.9656 22.1264 24.8333 22.1271C24.7404 22.1283 24.6483 22.1102 24.5628 22.0741C24.4772 22.0379 24.4001 21.9845 24.3362 21.917C24.2723 21.8496 24.223 21.7697 24.1915 21.6823C24.16 21.595 24.1469 21.502 24.1531 21.4093ZM7.67918 21.4093V20.2881H7.19128V20.5602C7.10842 20.4536 7.0014 20.3682 6.87904 20.3111C6.75668 20.254 6.6225 20.2268 6.48756 20.2318C6.17651 20.2318 5.87819 20.3554 5.65823 20.5753C5.43828 20.7953 5.31471 21.0936 5.31471 21.4046C5.31471 21.7157 5.43828 22.014 5.65823 22.234C5.87819 22.4539 6.17651 22.5775 6.48756 22.5775C6.6225 22.5825 6.75668 22.5553 6.87904 22.4982C7.0014 22.4411 7.10842 22.3557 7.19128 22.2491V22.5212H7.67918V21.4093ZM5.86361 21.4093C5.87139 21.2773 5.9176 21.1505 5.99656 21.0444C6.07552 20.9383 6.18377 20.8577 6.30799 20.8124C6.43221 20.767 6.56697 20.759 6.69568 20.7893C6.82439 20.8196 6.94143 20.8869 7.03239 20.9829C7.12334 21.0789 7.18425 21.1994 7.2076 21.3295C7.23095 21.4597 7.21572 21.5938 7.1638 21.7154C7.11188 21.837 7.02553 21.9408 6.91538 22.0139C6.80523 22.0871 6.67609 22.1264 6.54386 22.1271C6.45059 22.1289 6.35796 22.1114 6.27184 22.0755C6.18573 22.0396 6.108 21.9863 6.0436 21.9188C5.9792 21.8513 5.92953 21.7712 5.89773 21.6835C5.86594 21.5958 5.85272 21.5024 5.85892 21.4093H5.86361Z" fill="#212529"/>
<path d="M11.3546 9.86609C11.3532 8.49518 11.6638 7.14191 12.2627 5.90875C12.736 4.93418 13.3797 4.05481 14.1611 3.31103C13.1626 2.68046 12.0301 2.28442 10.8489 2.15772C9.40282 2.0026 7.94227 2.25745 6.63416 2.89314C5.32606 3.52884 4.2232 4.51973 3.45161 5.75256C2.68003 6.9854 2.27085 8.41045 2.27085 9.86483C2.27085 11.3192 2.68003 12.7443 3.45161 13.9771C4.2232 15.2099 5.32606 16.2008 6.63416 16.8365C7.94227 17.4722 9.40282 17.7271 10.8489 17.5719C12.0301 17.4452 13.1626 17.0492 14.1611 16.4186C13.38 15.6751 12.7365 14.7962 12.2632 13.822C11.6643 12.5893 11.3536 11.2366 11.3546 9.86609ZM11.3546 9.86609C11.3546 9.86589 11.3546 9.86569 11.3546 9.86549L12.0043 9.866L11.3546 9.86669C11.3546 9.86649 11.3546 9.86629 11.3546 9.86609Z" stroke="#212529" stroke-width="1.3"/>
<path d="M26.5439 9.86587C26.5439 9.86586 26.5439 9.86586 26.5439 9.86585V9.86355V9.86587ZM26.5439 9.86587C26.5439 11.3204 26.1346 12.7455 25.3629 13.9784M26.5439 9.86587L25.3629 13.9784M25.3629 13.9784C24.5912 15.2112 23.4881 16.2021 22.1799 16.8377M25.3629 13.9784L22.1799 16.8377M22.1799 16.8377C20.8716 17.4733 19.4109 17.728 17.9647 17.5727M22.1799 16.8377L17.9647 17.5727M17.9647 17.5727C16.7833 17.4458 15.6505 17.0494 14.6519 16.4184M17.9647 17.5727L14.6519 16.4184M14.6519 16.4184C15.4329 15.6744 16.0763 14.7952 16.5498 13.8209C17.1489 12.5881 17.4602 11.2354 17.4602 9.8647C17.4602 8.49404 17.1489 7.14128 16.5498 5.90848C16.0763 4.93421 15.4329 4.05498 14.6519 3.31103C15.6505 2.68003 16.7833 2.28365 17.9647 2.15674C19.4109 2.0014 20.8716 2.25608 22.1799 2.89169C23.4881 3.52729 24.5912 4.51816 25.3629 5.75104C26.1346 6.98392 26.5439 8.40905 26.5439 9.86354L14.6519 16." stroke="#212529" stroke-width="1.3"/>
</g>
<defs>
<clipPath id="clip0_2008_247">
<rect width="28" height="24" fill="white"/>
</clipPath>
</defs>
</svg>
