<svg width="28" height="24" viewBox="0 0 28 24" fill="none" xmlns="http://www.w3.org/2000/svg">
<path d="M25.375 23H2.625C1.1725 23 0 21.8275 0 20.375V4.625C0 3.1725 1.1725 2 2.625 2H25.375C26.8275 2 28 3.1725 28 4.625V20.375C28 21.8275 26.8275 23 25.375 23ZM2.625 3.75C2.135 3.75 1.75 4.135 1.75 4.625V20.375C1.75 20.865 2.135 21.25 2.625 21.25H25.375C25.865 21.25 26.25 20.865 26.25 20.375V4.625C26.25 4.135 25.865 3.75 25.375 3.75H2.625Z" fill="#212529"/>
<path d="M22.65 9.7925H21.4C21.0167 9.7925 20.7333 9.90917 20.55 10.2925L18.15 15.7592H19.85C19.85 15.7592 20.15 15.0258 20.2 14.8592H22.2833C22.35 15.0592 22.4833 15.7425 22.4833 15.7425H24L22.65 9.80917V9.7925ZM20.6667 13.6258C20.8167 13.2758 21.3167 11.9592 21.3167 11.9592C21.3167 11.9925 21.4667 11.6092 21.5167 11.4092L21.6333 11.9425L22.0167 13.6758H20.6667V13.6425V13.6258ZM18.2667 13.7925C18.2667 15.0258 17.15 15.8425 15.4333 15.8425C14.7 15.8425 14 15.6925 13.6167 15.5258L13.85 14.1758L14.05 14.2592C14.5833 14.4925 14.9333 14.5758 15.5667 14.5758C16.0333 14.5758 16.5333 14.3925 16.5333 13.9925C16.5333 13.7258 16.3333 13.5592 15.6833 13.2592C15.0667 12.9592 14.25 12.4925 14.25 11.6592C14.25 10.4925 15.3833 9.6925 17 9.6925C17.6167 9.6925 18.1333 9.80917 18.4667 9.95917L18.2333 11.2425L18.1167 11.1258C17.8167 11.0092 17.45 10.8925 16.8833 10.8925C16.2667 10.9258 15.9833 11.1925 15.9833 11.4258C15.9833 11.6925 16.3333 11.8925 16.8833 12.1592C17.8167 12.5925 18.25 13.0925 18.25 13.7925H18.2667ZM4 9.84251L4.03333 9.72584H6.55C6.9 9.72584 7.16667 9.84251 7.25 10.2258L7.8 12.8592C7.25 11.4592 5.95 10.3092 4 9.84251Z" fill="#212529"/>
<path d="M11.3333 9.79237L8.78325 15.7257H7.04992L5.58325 10.759C6.63325 11.4257 7.51659 12.4924 7.83325 13.209L8.01659 13.8257L9.59992 9.75903H11.3333V9.79237ZM12.0166 9.75903H13.6166L12.5999 15.7257H10.9999L12.0166 9.75903Z" fill="#212529"/>
</svg>
