<svg width="255" height="26" viewBox="0 0 255 26" fill="none" xmlns="http://www.w3.org/2000/svg">
<g clip-path="url(#clip0_48_243)">
<path d="M157.245 25.8571C155.209 12.6852 148.714 3.04649 141.006 3.04649C133.298 3.04649 126.802 12.6852 124.767 25.8571H121.291C123.021 11.2243 131.192 0.142822 141.021 0.142822C150.85 0.142822 159.021 11.2243 160.748 25.8571H157.245Z" fill="#005CA9"/>
<path d="M11.0746 25.845V7.6911H0V4.54346H25.8357V7.6911H15.0627V25.845H11.0716H11.0746Z" fill="#010101"/>
<path d="M33.0077 25.845V4.54346H54.7335V7.6911H36.9988V13.0165H53.8347V16.1641H36.9988V22.7004H54.7335V25.848H33.0077V25.845Z" fill="#010101"/>
<path d="M81.4679 25.845L73.4856 16.3449H66.6124V25.845H62.6212V4.54346H66.6124V13.1972H73.3942L81.346 4.54346H86.0867L76.6938 14.4683L86.0562 25.845H81.4649H81.4679Z" fill="#010101"/>
<path d="M92.899 25.845V4.54346H96.9206V22.6974H114.055V25.845H92.899Z" fill="#010101"/>
<path d="M168.042 25.8571V22.7094H186.407C188.208 22.7094 189.049 22.0136 189.049 20.7425V18.0497C189.049 16.7786 188.208 16.0828 186.407 16.0828H173.983C169.181 16.0828 167.35 13.9954 167.35 10.9381V9.69715C167.35 6.63987 169.181 4.55249 173.983 4.55249H191.867V7.70013H173.983C172.182 7.70013 171.341 8.39593 171.341 9.66703V10.9683C171.341 12.2394 172.182 12.9352 173.983 12.9352H186.407C191.209 12.9352 193.04 15.0225 193.04 18.0798V20.7124C193.04 23.7697 191.209 25.8571 186.407 25.8571H168.042Z" fill="#010101"/>
<path d="M200.806 25.8572V4.55566H222.532V7.70331H204.797V13.0287H221.633V16.1763H204.797V22.7126H222.532V25.8602H200.806V25.8572Z" fill="#010101"/>
<path d="M250.497 25.8572L245.546 16.3571H234.414V25.8572H230.423V4.55566H248.368C253.169 4.55566 255 6.64305 255 9.70033V11.2124C255 13.9655 253.529 15.9324 249.778 16.2968L254.76 25.8572H250.497ZM251.009 9.67021C251.009 8.3991 250.168 7.70331 248.368 7.70331H234.414V13.2094H248.368C250.168 13.2094 251.009 12.5136 251.009 11.2425V9.67021Z" fill="#010101"/>
</g>
<defs>
<clipPath id="clip0_48_243">
<rect width="255" height="25.7143" fill="white" transform="translate(0 0.142822)"/>
</clipPath>
</defs>
</svg>
