<svg width="24" height="32" viewBox="0 0 24 32" fill="none" xmlns="http://www.w3.org/2000/svg">
<g clip-path="url(#clip0_48_134)">
<path d="M-24.3381 0.128628C-24.8048 0.404819 -24.7857 -0.338039 -24.7857 16.0239C-24.7857 32.462 -24.8143 31.662 -24.319 31.9286C-24.1952 31.9953 -16.4905 32.0239 -0.3857 32.0239C21.9667 32.0239 23.3667 32.0143 23.5572 31.8524C23.6714 31.7667 23.8143 31.5953 23.8714 31.481C23.9476 31.3286 23.9762 27.0715 23.9762 16.0239C23.9762 -0.41423 24.0048 0.385771 23.5095 0.119104C23.2524 -0.0142288 -24.1 -0.00470352 -24.3381 0.128628ZM22.0714 16.0239V30.1191H-0.404749H-22.8809V16.0239V1.92863H-0.404749H22.0714V16.0239Z" fill="white"/>
<path d="M-0.623774 3.51909C-0.709488 3.54766 -5.12854 6.19528 -10.4333 9.41433C-17.0238 13.4143 -20.1285 15.3477 -20.2333 15.5191C-20.4523 15.8524 -20.4523 16.1953 -20.2333 16.5286C-20.1285 16.7 -17.0809 18.6048 -10.6428 22.5096C-5.45234 25.662 -1.0333 28.3191 -0.814249 28.4239C-0.414249 28.6048 -0.395201 28.6048 -0.0047245 28.4239C0.223846 28.3191 4.64289 25.662 9.83337 22.5191C16.3477 18.5572 19.3096 16.7096 19.4238 16.5286C19.5191 16.3762 19.5953 16.1572 19.5953 16.0239C19.5953 15.8905 19.5191 15.6715 19.4238 15.5191C19.3096 15.3381 16.2905 13.4524 9.64289 9.41433C4.34766 6.2048 -0.0904388 3.55718 -0.214249 3.52861C-0.347582 3.50004 -0.528534 3.50004 -0.623774 3.51909ZM8.19527 10.8239C12.8429 13.6429 16.6429 15.9858 16.6429 16.0239C16.6429 16.1381 -0.242821 26.3572 -0.414249 26.3477C-0.519011 26.3477 -9.49044 20.9477 -16.9 16.4239C-17.2047 16.2429 -17.4523 16.0619 -17.4523 16.0239C-17.4523 15.9858 -16.6523 15.4619 -15.6714 14.8715C-14.6809 14.281 -10.8619 11.9572 -7.16663 9.71909C-3.47139 7.47147 -0.404726 5.65242 -0.357105 5.66195C-0.299963 5.68099 3.54766 7.99528 8.19527 10.8239Z" fill="white"/>
<path d="M-1.07145 8.70003C-2.00478 8.78575 -2.58573 8.93813 -3.42383 9.30956C-6.10954 10.5381 -7.75716 13.0905 -7.74764 16.0238C-7.74764 17.3286 -7.53812 18.2334 -7.00478 19.3096C-5.74764 21.8238 -3.22383 23.3667 -0.395258 23.3667C3.7095 23.3572 6.93808 20.1286 6.93808 16.0238C6.93808 11.6619 3.29998 8.3286 -1.07145 8.70003ZM0.82379 10.7381C1.85236 10.9857 2.61427 11.4143 3.40474 12.2143C4.46188 13.2715 5.01427 14.5572 5.02379 15.9762V16.5381L4.38569 15.9191C3.7476 15.3 2.98569 14.7 2.20474 14.1953C0.909504 13.3667 -1.47145 12.4334 -2.88097 12.2143C-3.27145 12.1572 -3.70002 12.081 -3.83335 12.0524L-4.07145 12.0048L-3.73812 11.7381C-2.58573 10.7857 -0.709544 10.3762 0.82379 10.7381ZM-2.94764 14.1762C-0.766687 14.6334 1.37617 15.7477 2.93808 17.2334C3.99522 18.2429 4.29046 18.6334 4.20474 18.9C4.08093 19.2905 2.72855 20.5286 2.06188 20.8524C-0.128592 21.9286 -2.50954 21.5381 -4.21431 19.8334C-5.02383 19.0334 -5.44288 18.281 -5.70002 17.2048C-5.88097 16.4238 -5.83335 15.1953 -5.59526 14.4143L-5.43335 13.9L-4.51907 13.9667C-4.01431 14.0048 -3.30002 14.1 -2.94764 14.1762Z" fill="white"/>
</g>
<defs>
<clipPath id="clip0_48_134">
<rect width="24" height="32" fill="white"/>
</clipPath>
</defs>
</svg>
