<svg width="48" height="49" viewBox="0 0 48 49" fill="none" xmlns="http://www.w3.org/2000/svg">
<path d="M36.136 48.5V39.4266H12.5652C11.6057 39.4266 10.7838 39.0845 10.0996 38.4003C9.41543 37.7161 9.07335 36.8943 9.07335 35.9347V12.3639H0V9.55901H9.07335V0.5H11.8783V35.9347C11.8783 36.116 11.9475 36.2758 12.0858 36.4141C12.2241 36.5525 12.384 36.6217 12.5652 36.6217H47.9999V39.4266H38.9409V48.4999L36.136 48.5ZM36.136 33.8167V13.051C36.136 12.8792 36.0644 12.7218 35.9213 12.5787C35.7782 12.4355 35.6207 12.3639 35.449 12.3639H14.6832V9.55901H35.449C36.4012 9.55901 37.2212 9.90295 37.9091 10.5908C38.597 11.2787 38.9409 12.0988 38.9409 13.051V33.8167H36.136Z" fill="#212529"/>
</svg>
