<svg width="49" height="49" viewBox="0 0 49 49" fill="none" xmlns="http://www.w3.org/2000/svg">
<path d="M16.6354 22.9156L22.4156 17.1223L17.4125 12.106L14.4103 15.1246L12.1526 12.8669L15.1581 9.86471L10.2989 5.03171L4.50561 10.825L16.6354 22.9156ZM37.6505 43.9961L43.4438 38.1766L38.5846 33.3174L35.5824 36.3229L33.3248 34.0652L36.3138 31.063L31.3647 26.1107L25.5845 31.8909L37.6505 43.9961ZM11.5685 45.974H2.55225V36.9577L14.3384 25.1716L0 10.825L10.2563 0.5L24.7093 14.9022L36.0652 3.53315C36.3979 3.20051 36.7611 2.95947 37.1548 2.81004C37.5485 2.6606 37.9548 2.58589 38.3736 2.58589C38.7815 2.58589 39.1823 2.6606 39.576 2.81004C39.9698 2.95947 40.333 3.20051 40.6657 3.53315L44.9931 7.94727C45.3257 8.27995 45.5627 8.64316 45.7039 9.03689C45.8452 9.43061 45.9158 9.83142 45.9158 10.2393C45.9158 10.6581 45.8452 11.0581 45.7039 11.4393C45.5627 11.8205 45.3257 12.1775 44.9931 12.5101L33.6862 23.8382L48.0262 38.2273L37.7437 48.5L23.3808 34.1616L11.5685 45.974ZM5.75883 42.7674H10.1812L35.2603 17.6752L30.8249 13.2398L5.75883 38.3451V42.7674ZM33.045 15.4518L30.8249 13.2398L35.2603 17.6752L33.045 15.4518Z" fill="#212529"/>
</svg>
