<svg width="36" height="36" viewBox="0 0 36 36" fill="none" xmlns="http://www.w3.org/2000/svg">
<path d="M29.2502 32.625H29.059C6.95272 31.3538 3.81397 12.7013 3.37522 7.00875C3.33986 6.56615 3.39219 6.12093 3.5292 5.69859C3.66621 5.27625 3.88521 4.88509 4.17365 4.54753C4.46209 4.20998 4.8143 3.93265 5.2101 3.73144C5.60591 3.53024 6.03752 3.40911 6.48022 3.375H12.679C13.1296 3.37456 13.57 3.50945 13.9431 3.76218C14.3161 4.01492 14.6047 4.37385 14.7715 4.7925L16.4815 9C16.6461 9.40899 16.687 9.85734 16.599 10.2894C16.511 10.7214 16.298 11.118 15.9865 11.43L13.5902 13.8488C13.9645 15.9758 14.9832 17.9366 16.5084 19.4658C18.0335 20.995 19.9916 22.0188 22.1177 22.3988L24.559 19.98C24.8757 19.6719 25.276 19.4639 25.7102 19.3819C26.1443 19.2999 26.593 19.3475 27.0002 19.5188L31.2415 21.2175C31.6538 21.3895 32.0056 21.6803 32.252 22.053C32.4985 22.4257 32.6284 22.8632 32.6252 23.31V29.25C32.6252 30.1451 32.2696 31.0036 31.6367 31.6365C31.0038 32.2694 30.1453 32.625 29.2502 32.625ZM6.75022 5.625C6.45185 5.625 6.1657 5.74353 5.95472 5.95451C5.74374 6.16548 5.62522 6.45163 5.62522 6.75V6.84C6.14272 13.5 9.46147 29.25 29.1827 30.375C29.3305 30.3841 29.4787 30.364 29.6187 30.3158C29.7587 30.2675 29.8878 30.1921 29.9985 30.0939C30.1093 29.9956 30.1996 29.8765 30.2643 29.7432C30.3289 29.61 30.3666 29.4653 30.3752 29.3175V23.31L26.134 21.6112L22.9052 24.8175L22.3652 24.75C12.5777 23.5238 11.2502 13.7363 11.2502 13.635L11.1827 13.095L14.3777 9.86625L12.6902 5.625H6.75022Z" fill="#212529"/>
</svg>
