<svg width="23" height="40" viewBox="0 0 23 40" fill="none" xmlns="http://www.w3.org/2000/svg">
<path d="M11.5001 39.0625C8.19646 39.0625 5.49687 38.5825 3.40136 37.6225C1.30589 36.6625 0.258147 35.4297 0.258147 33.924C0.258147 33.1036 0.622224 32.3364 1.35038 31.6224C2.0785 30.9085 3.08634 30.3175 4.37389 29.8497L5.09074 32.207C4.49583 32.4326 3.99242 32.6985 3.5805 33.0047C3.16859 33.3109 2.87574 33.6174 2.70196 33.924C3.0955 34.6911 4.14221 35.3299 5.8421 35.8404C7.54199 36.3509 9.42799 36.6061 11.5001 36.6061C13.5597 36.6061 15.4476 36.3509 17.1638 35.8404C18.8799 35.3299 19.9348 34.6911 20.3283 33.924C20.1629 33.6391 19.8754 33.3446 19.466 33.0405C19.0566 32.7363 18.5478 32.4585 17.9396 32.207L18.6552 29.8497C19.9343 30.3175 20.9353 30.9085 21.658 31.6224C22.3807 32.3364 22.7421 33.1036 22.7421 33.924C22.7421 35.4297 21.6943 36.6625 19.5988 37.6225C17.5033 38.5825 14.8038 39.0625 11.5001 39.0625ZM11.5001 28.7593C12.1373 27.5495 12.8464 26.3816 13.6274 25.2557C14.4083 24.1298 15.1957 23.0597 15.9894 22.0454C17.3305 20.3067 18.3964 18.7672 19.1872 17.427C19.978 16.0868 20.3734 14.3661 20.3734 12.2648C20.3734 9.81057 19.5097 7.71855 17.7821 5.98868C16.0546 4.25881 13.9583 3.39388 11.4931 3.39388C9.02796 3.39388 6.93394 4.25881 5.21108 5.98868C3.48822 7.71855 2.62679 9.81057 2.62679 12.2648C2.62679 14.3661 3.02324 16.0868 3.81614 17.427C4.60908 18.7672 5.67396 20.3067 7.01078 22.0454C7.80453 23.0597 8.59188 24.1298 9.37282 25.2557C10.1538 26.3816 10.8629 27.5495 11.5001 28.7593ZM11.5001 32.9263C11.1659 32.9263 10.8626 32.8196 10.5902 32.6061C10.3179 32.3926 10.1207 32.1141 9.99866 31.7708C9.17735 29.5475 8.20626 27.6945 7.08542 26.2119C5.96454 24.7292 4.88943 23.3086 3.86009 21.9501C2.83237 20.5999 1.9605 19.1912 1.24446 17.724C0.528427 16.2568 0.17041 14.4374 0.17041 12.2658C0.17041 9.0976 1.26444 6.41749 3.45249 4.2255C5.64058 2.0335 8.32311 0.9375 11.5001 0.9375C14.6771 0.9375 17.3596 2.03153 19.5477 4.21958C21.7358 6.40767 22.8298 9.09021 22.8298 12.2672C22.8298 14.4379 22.4759 16.2551 21.768 17.7188C21.0602 19.1825 20.1884 20.5929 19.1527 21.9501C18.125 23.3086 17.0482 24.7292 15.9223 26.2119C14.7965 27.6945 13.8245 29.5446 13.0064 31.7621C12.8812 32.1013 12.6824 32.3801 12.41 32.5986C12.1376 32.8171 11.8343 32.9263 11.5001 32.9263ZM11.5069 15.25C12.3254 15.25 13.026 14.9584 13.6087 14.3753C14.1915 13.7922 14.4829 13.0872 14.4829 12.2604C14.4829 11.442 14.1892 10.7434 13.6019 10.1648C13.0146 9.58626 12.3118 9.29696 11.4933 9.29696C10.6749 9.29696 9.97634 9.58852 9.39775 10.1716C8.81916 10.7548 8.52987 11.4555 8.52987 12.274C8.52987 13.1008 8.82143 13.8035 9.40455 14.3821C9.98767 14.9607 10.6884 15.25 11.5069 15.25Z" fill="#005CA9"/>
</svg>
