<svg width="32" height="32" viewBox="0 0 32 32" fill="none" xmlns="http://www.w3.org/2000/svg">
<path d="M5.65335 14.2932L5.42978 12.549C4.90182 12.4295 4.4053 12.2428 3.94024 11.989C3.47517 11.7352 3.05563 11.4157 2.68162 11.0305L1.06503 11.7074L0 9.99071L1.37612 8.7569C1.21723 8.22328 1.13778 7.68652 1.13778 7.1466C1.13778 6.60665 1.21723 6.06989 1.37612 5.5363L0 4.30248L1.06503 2.58575L2.68162 3.26275C3.05563 2.8775 3.47517 2.55972 3.94024 2.30942C4.4053 2.05914 4.90182 1.87074 5.42978 1.74421L5.65335 0H7.7202L7.9332 1.74421C8.46119 1.87074 8.95772 2.05914 9.42279 2.30942C9.88783 2.55972 10.3074 2.8775 10.6814 3.26275L12.298 2.58575L13.363 4.30248L11.9594 5.5363C12.1254 6.05864 12.2083 6.5926 12.2083 7.13817C12.2083 7.68371 12.1254 8.22328 11.9594 8.7569L13.363 9.99071L12.298 11.7074L10.6814 11.0305C10.3074 11.4269 9.88783 11.7493 9.42279 11.9975C8.95772 12.2456 8.46119 12.4295 7.9332 12.549L7.7202 14.2932H5.65335ZM6.68676 10.8027C7.69703 10.8027 8.55807 10.4468 9.26988 9.73498C9.98171 9.02315 10.3376 8.16211 10.3376 7.15186C10.3376 6.13457 9.98171 5.27002 9.26988 4.55821C8.55807 3.84638 7.69703 3.49047 6.68676 3.49047C5.66949 3.49047 4.80494 3.84638 4.09311 4.55821C3.3813 5.27002 3.0254 6.13457 3.0254 7.15186C3.0254 8.16211 3.3813 9.02315 4.09311 9.73498C4.80494 10.4468 5.66949 10.8027 6.68676 10.8027ZM21.771 32L21.3302 29.9395C20.5864 29.8059 19.8901 29.5504 19.2412 29.1728C18.5923 28.7953 18.034 28.3095 17.5665 27.7154L15.6273 28.3798L14.3398 26.199L15.8941 24.8535C15.6311 24.1399 15.4997 23.401 15.4997 22.6368C15.4997 21.8726 15.6311 21.1302 15.8941 20.4096L14.3398 19.0914L15.6273 16.9002L17.5665 17.5308C18.0523 16.9479 18.6151 16.465 19.2549 16.0818C19.8946 15.6987 20.5864 15.4459 21.3302 15.3236L21.771 13.2736H24.3082L24.7384 15.3236C25.5047 15.4164 26.2067 15.6589 26.8444 16.0512C27.482 16.4435 28.0438 16.9367 28.5296 17.5308L30.4583 16.9002L31.7564 19.0914L30.1914 20.4096C30.4544 21.1302 30.5858 21.8726 30.5858 22.6368C30.5858 23.401 30.4544 24.1399 30.1914 24.8535L31.7564 26.199L30.4583 28.4072L28.5296 27.7154C28.055 28.3278 27.4933 28.8181 26.8444 29.1865C26.1955 29.5549 25.4935 29.8059 24.7384 29.9395L24.3082 32L21.771 32ZM23.0428 27.9454C24.5177 27.9454 25.773 27.4294 26.8085 26.3973C27.8441 25.3653 28.3619 24.1118 28.3619 22.6368C28.3619 21.1618 27.8441 19.9066 26.8085 18.871C25.773 17.8355 24.5177 17.3177 23.0428 17.3177C21.5678 17.3177 20.3143 17.8355 19.2823 18.871C18.2502 19.9066 17.7342 21.1618 17.7342 22.6368C17.7342 24.1118 18.2502 25.3653 19.2823 26.3973C20.3143 27.4294 21.5678 27.9454 23.0428 27.9454Z" fill="white"/>
</svg>
