<svg width="47" height="32" viewBox="0 0 47 32" fill="none" xmlns="http://www.w3.org/2000/svg">
<path d="M1 12C1 5.92487 5.92487 1 12 1H46V20C46 26.0751 41.0751 31 35 31H1V12Z" stroke="white" stroke-width="2"/>
<path d="M14.09 7.10167C14.0633 7.14633 14.0335 7.18056 14.0007 7.20437C13.971 7.22521 13.9338 7.23563 13.8891 7.23563C13.8385 7.23563 13.779 7.21033 13.7105 7.15972C13.642 7.10912 13.5557 7.05405 13.4515 6.99451C13.3503 6.932 13.2268 6.87544 13.0809 6.82484C12.938 6.77423 12.7639 6.74893 12.5585 6.74893C12.365 6.74893 12.1939 6.77572 12.045 6.8293C11.8992 6.87991 11.7756 6.94986 11.6744 7.03916C11.5762 7.12846 11.5018 7.23414 11.4512 7.35619C11.4006 7.47526 11.3753 7.60474 11.3753 7.74465C11.3753 7.92326 11.4184 8.07209 11.5047 8.19116C11.594 8.30726 11.7101 8.40698 11.853 8.49033C11.9989 8.57367 12.1626 8.6466 12.3442 8.70912C12.5287 8.76865 12.7163 8.83116 12.9068 8.89665C13.1003 8.96214 13.2878 9.03656 13.4694 9.11991C13.654 9.20028 13.8177 9.30298 13.9606 9.428C14.1064 9.55302 14.2225 9.70633 14.3088 9.88791C14.3981 10.0695 14.4428 10.2927 14.4428 10.5577C14.4428 10.8375 14.3952 11.1009 14.2999 11.348C14.2047 11.5921 14.0647 11.8049 13.8802 11.9865C13.6986 12.1681 13.4739 12.311 13.206 12.4152C12.941 12.5193 12.6389 12.5714 12.2995 12.5714C11.8828 12.5714 11.5047 12.497 11.1654 12.3482C10.826 12.1964 10.5358 11.9925 10.2947 11.7365L10.5447 11.3257C10.5686 11.2929 10.5968 11.2661 10.6296 11.2453C10.6653 11.2215 10.704 11.2096 10.7457 11.2096C10.7844 11.2096 10.8275 11.226 10.8752 11.2587C10.9258 11.2885 10.9823 11.3272 11.0448 11.3748C11.1073 11.4224 11.1788 11.4745 11.2592 11.5311C11.3395 11.5876 11.4303 11.6397 11.5315 11.6873C11.6357 11.735 11.7533 11.7752 11.8843 11.8079C12.0153 11.8377 12.1626 11.8526 12.3263 11.8526C12.5317 11.8526 12.7148 11.8243 12.8755 11.7677C13.0363 11.7112 13.1717 11.6323 13.2819 11.5311C13.395 11.4269 13.4813 11.3033 13.5408 11.1605C13.6004 11.0176 13.6301 10.8583 13.6301 10.6827C13.6301 10.4892 13.5855 10.3314 13.4962 10.2094C13.4099 10.0844 13.2953 9.98019 13.1524 9.89684C13.0095 9.81349 12.8458 9.74353 12.6612 9.68698C12.4767 9.62744 12.2891 9.56791 12.0986 9.50837C11.9081 9.44586 11.7206 9.37442 11.536 9.29405C11.3514 9.21367 11.1877 9.10949 11.0448 8.98149C10.902 8.85349 10.7859 8.69423 10.6966 8.50372C10.6102 8.31023 10.5671 8.07209 10.5671 7.7893C10.5671 7.56307 10.6102 7.34428 10.6966 7.13293C10.7859 6.92158 10.9139 6.73405 11.0806 6.57032C11.2502 6.4066 11.4571 6.27563 11.7012 6.17739C11.9483 6.07916 12.2311 6.03005 12.5496 6.03005C12.9068 6.03005 13.2313 6.0866 13.523 6.19972C13.8177 6.31284 14.0767 6.47656 14.2999 6.69088L14.09 7.10167ZM16.7108 12.5H15.8446V6.10149H16.7108V12.5ZM23.7101 6.10149V12.5H23.277C23.2085 12.5 23.1504 12.4881 23.1028 12.4643C23.0582 12.4405 23.0135 12.4003 22.9689 12.3437L19.2673 7.5214C19.2732 7.59581 19.2777 7.66874 19.2807 7.74019C19.2837 7.81163 19.2851 7.8786 19.2851 7.94112V12.5H18.5261V6.10149H18.9726C19.0113 6.10149 19.044 6.10446 19.0708 6.11042C19.0976 6.11339 19.1214 6.12084 19.1423 6.13274C19.1631 6.14167 19.1839 6.15656 19.2048 6.17739C19.2256 6.19526 19.2479 6.21907 19.2717 6.24884L22.9733 11.0667C22.9674 10.9893 22.9614 10.9149 22.9555 10.8434C22.9525 10.769 22.951 10.6991 22.951 10.6336V6.10149H23.7101ZM30.0163 11.1783C30.064 11.1783 30.1057 11.1977 30.1414 11.2364L30.4852 11.607C30.2232 11.9106 29.9047 12.1473 29.5297 12.3169C29.1576 12.4866 28.7066 12.5714 28.1767 12.5714C27.7183 12.5714 27.3016 12.4926 26.9265 12.3348C26.5514 12.174 26.2314 11.9508 25.9665 11.665C25.7016 11.3763 25.4962 11.031 25.3503 10.6291C25.2044 10.2273 25.1315 9.78521 25.1315 9.30298C25.1315 8.82074 25.2074 8.3787 25.3592 7.97684C25.511 7.57498 25.7239 7.22967 25.9977 6.94093C26.2746 6.65219 26.605 6.42893 26.989 6.27116C27.373 6.11042 27.7972 6.03005 28.2616 6.03005C28.717 6.03005 29.1189 6.10298 29.4671 6.24884C29.8154 6.3947 30.122 6.59265 30.387 6.8427L30.1012 7.24009C30.0833 7.26986 30.0595 7.29516 30.0297 7.316C30.003 7.33386 29.9657 7.34279 29.9181 7.34279C29.8645 7.34279 29.799 7.31451 29.7217 7.25795C29.6443 7.19842 29.543 7.13293 29.418 7.06149C29.293 6.99005 29.1367 6.92605 28.9492 6.86949C28.7617 6.80995 28.531 6.78019 28.2571 6.78019C27.9267 6.78019 27.6245 6.83823 27.3507 6.95432C27.0768 7.06744 26.8402 7.23265 26.6407 7.44995C26.4443 7.66726 26.291 7.93219 26.1808 8.24474C26.0707 8.5573 26.0156 8.91005 26.0156 9.30298C26.0156 9.70186 26.0722 10.0576 26.1853 10.3701C26.3014 10.6827 26.4577 10.9476 26.6541 11.1649C26.8536 11.3793 27.0872 11.543 27.3551 11.6561C27.626 11.7692 27.9177 11.8258 28.2303 11.8258C28.4208 11.8258 28.592 11.8153 28.7438 11.7945C28.8986 11.7707 29.04 11.735 29.168 11.6873C29.299 11.6397 29.4195 11.5802 29.5297 11.5087C29.6428 11.4343 29.7544 11.3465 29.8645 11.2453C29.9151 11.2007 29.9657 11.1783 30.0163 11.1783ZM35.6153 11.7945L35.6109 12.5H31.6682V6.10149H35.6109V6.80698H32.5344V8.93237H35.0259V9.61107H32.5344V11.7945H35.6153Z" fill="white"/>
<path d="M16.1103 24.3019C16.2492 24.3019 16.3586 24.3418 16.4385 24.4217C16.5219 24.4981 16.5635 24.6005 16.5635 24.729V25.5H11.3959V25.0728C11.3959 24.986 11.4133 24.8957 11.448 24.802C11.4862 24.7047 11.5452 24.6179 11.6251 24.5415L13.912 22.2494C14.103 22.0549 14.2732 21.8691 14.4225 21.692C14.5753 21.5149 14.7021 21.3395 14.8028 21.1659C14.9035 20.9922 14.9799 20.8168 15.032 20.6397C15.0876 20.4591 15.1153 20.2699 15.1153 20.0719C15.1153 19.8913 15.0893 19.7333 15.0372 19.5979C14.9851 19.4589 14.9104 19.3426 14.8132 19.2488C14.7194 19.1551 14.6048 19.0856 14.4694 19.0405C14.3374 18.9918 14.1881 18.9675 14.0214 18.9675C13.8686 18.9675 13.7262 18.9901 13.5942 19.0353C13.4657 19.0769 13.3511 19.1377 13.2504 19.2176C13.1497 19.294 13.0646 19.3843 12.9952 19.4885C12.9257 19.5927 12.8736 19.7073 12.8389 19.8323C12.7798 19.992 12.7034 20.098 12.6097 20.15C12.5159 20.2021 12.3805 20.2143 12.2033 20.1865L11.5261 20.0667C11.5782 19.7055 11.6789 19.3895 11.8283 19.1186C11.9776 18.8442 12.1634 18.6168 12.3857 18.4362C12.6114 18.2521 12.8684 18.1149 13.1567 18.0247C13.4484 17.9309 13.7609 17.884 14.0943 17.884C14.4416 17.884 14.7594 17.9361 15.0476 18.0403C15.3359 18.141 15.5824 18.2851 15.7873 18.4727C15.9922 18.6602 16.152 18.8859 16.2666 19.1499C16.3812 19.4138 16.4385 19.7073 16.4385 20.0302C16.4385 20.3081 16.3968 20.5651 16.3135 20.8012C16.2336 21.0374 16.1242 21.2631 15.9853 21.4784C15.8499 21.6937 15.6901 21.9021 15.506 22.1035C15.322 22.305 15.1292 22.5099 14.9278 22.7182L13.2296 24.4529C13.3928 24.4043 13.5543 24.3678 13.714 24.3435C13.8773 24.3158 14.0318 24.3019 14.1777 24.3019H16.1103ZM23.0343 21.7337C23.0343 22.39 22.9631 22.9613 22.8207 23.4475C22.6818 23.9303 22.4873 24.3296 22.2373 24.6457C21.9907 24.9617 21.6972 25.1979 21.3569 25.3541C21.02 25.5069 20.6554 25.5833 20.263 25.5833C19.8705 25.5833 19.5059 25.5069 19.169 25.3541C18.8356 25.1979 18.5456 24.9617 18.299 24.6457C18.0525 24.3296 17.8597 23.9303 17.7208 23.4475C17.5819 22.9613 17.5124 22.39 17.5124 21.7337C17.5124 21.0738 17.5819 20.5025 17.7208 20.0198C17.8597 19.5371 18.0525 19.1377 18.299 18.8217C18.5456 18.5056 18.8356 18.2712 19.169 18.1184C19.5059 17.9621 19.8705 17.884 20.263 17.884C20.6554 17.884 21.02 17.9621 21.3569 18.1184C21.6972 18.2712 21.9907 18.5056 22.2373 18.8217C22.4873 19.1377 22.6818 19.5371 22.8207 20.0198C22.9631 20.5025 23.0343 21.0738 23.0343 21.7337ZM21.7059 21.7337C21.7059 21.1884 21.666 20.737 21.5861 20.3793C21.5062 20.0215 21.3986 19.7368 21.2631 19.5249C21.1312 19.3131 20.9784 19.1655 20.8047 19.0821C20.6311 18.9953 20.4505 18.9519 20.263 18.9519C20.0789 18.9519 19.9 18.9953 19.7264 19.0821C19.5562 19.1655 19.4052 19.3131 19.2732 19.5249C19.1412 19.7368 19.0353 20.0215 18.9554 20.3793C18.879 20.737 18.8408 21.1884 18.8408 21.7337C18.8408 22.2789 18.879 22.7304 18.9554 23.0881C19.0353 23.4458 19.1412 23.7306 19.2732 23.9424C19.4052 24.1543 19.5562 24.3036 19.7264 24.3904C19.9 24.4738 20.0789 24.5154 20.263 24.5154C20.4505 24.5154 20.6311 24.4738 20.8047 24.3904C20.9784 24.3036 21.1312 24.1543 21.2631 23.9424C21.3986 23.7306 21.5062 23.4458 21.5861 23.0881C21.666 22.7304 21.7059 22.2789 21.7059 21.7337ZM29.2863 21.7337C29.2863 22.39 29.2151 22.9613 29.0727 23.4475C28.9338 23.9303 28.7393 24.3296 28.4893 24.6457C28.2427 24.9617 27.9492 25.1979 27.6089 25.3541C27.272 25.5069 26.9074 25.5833 26.5149 25.5833C26.1225 25.5833 25.7578 25.5069 25.421 25.3541C25.0876 25.1979 24.7976 24.9617 24.551 24.6457C24.3045 24.3296 24.1117 23.9303 23.9728 23.4475C23.8339 22.9613 23.7644 22.39 23.7644 21.7337C23.7644 21.0738 23.8339 20.5025 23.9728 20.0198C24.1117 19.5371 24.3045 19.1377 24.551 18.8217C24.7976 18.5056 25.0876 18.2712 25.421 18.1184C25.7578 17.9621 26.1225 17.884 26.5149 17.884C26.9074 17.884 27.272 17.9621 27.6089 18.1184C27.9492 18.2712 28.2427 18.5056 28.4893 18.8217C28.7393 19.1377 28.9338 19.5371 29.0727 20.0198C29.2151 20.5025 29.2863 21.0738 29.2863 21.7337ZM27.9579 21.7337C27.9579 21.1884 27.918 20.737 27.8381 20.3793C27.7582 20.0215 27.6506 19.7368 27.5151 19.5249C27.3831 19.3131 27.2303 19.1655 27.0567 19.0821C26.8831 18.9953 26.7025 18.9519 26.5149 18.9519C26.3309 18.9519 26.152 18.9953 25.9784 19.0821C25.8082 19.1655 25.6571 19.3131 25.5252 19.5249C25.3932 19.7368 25.2873 20.0215 25.2074 20.3793C25.131 20.737 25.0928 21.1884 25.0928 21.7337C25.0928 22.2789 25.131 22.7304 25.2074 23.0881C25.2873 23.4458 25.3932 23.7306 25.5252 23.9424C25.6571 24.1543 25.8082 24.3036 25.9784 24.3904C26.152 24.4738 26.3309 24.5154 26.5149 24.5154C26.7025 24.5154 26.8831 24.4738 27.0567 24.3904C27.2303 24.3036 27.3831 24.1543 27.5151 23.9424C27.6506 23.7306 27.7582 23.4458 27.8381 23.0881C27.918 22.7304 27.9579 22.2789 27.9579 21.7337ZM32.4752 20.7022L32.2147 21.0252C32.3606 20.9523 32.5169 20.8967 32.6836 20.8585C32.8537 20.8168 33.0361 20.796 33.2305 20.796C33.5153 20.796 33.7914 20.8429 34.0588 20.9367C34.3297 21.0304 34.5676 21.1728 34.7725 21.3638C34.9774 21.5513 35.1423 21.7858 35.2674 22.0671C35.3924 22.3484 35.4549 22.6766 35.4549 23.0516C35.4549 23.4024 35.3907 23.7323 35.2622 24.0414C35.1337 24.347 34.9531 24.6144 34.7204 24.8436C34.4877 25.0728 34.2064 25.2534 33.8765 25.3854C33.55 25.5174 33.1889 25.5833 32.793 25.5833C32.3901 25.5833 32.0289 25.5191 31.7094 25.3906C31.3899 25.2621 31.1173 25.0833 30.8916 24.854C30.6658 24.6214 30.4922 24.3435 30.3706 24.0206C30.2526 23.6941 30.1935 23.3329 30.1935 22.937C30.1935 22.5828 30.2647 22.2199 30.4071 21.8483C30.553 21.4732 30.777 21.0842 31.0791 20.6814L32.8763 18.2695C32.9388 18.1861 33.0291 18.1149 33.1472 18.0559C33.2687 17.9969 33.4077 17.9673 33.5639 17.9673H34.71L32.4752 20.7022ZM32.7669 24.5311C32.9718 24.5311 33.1593 24.4963 33.3295 24.4269C33.5032 24.3574 33.6508 24.2602 33.7723 24.1352C33.8973 24.0101 33.9946 23.8643 34.064 23.6976C34.1335 23.5274 34.1682 23.3433 34.1682 23.1454C34.1682 22.9301 34.1352 22.7373 34.0692 22.5672C34.0032 22.3935 33.9095 22.2477 33.7879 22.1296C33.6664 22.008 33.5205 21.916 33.3503 21.8535C33.1802 21.791 32.9926 21.7597 32.7877 21.7597C32.5828 21.7597 32.397 21.7944 32.2303 21.8639C32.0637 21.9334 31.9213 22.0306 31.8032 22.1556C31.6851 22.2772 31.5931 22.423 31.5271 22.5932C31.4611 22.7599 31.4281 22.9405 31.4281 23.135C31.4281 23.3433 31.4559 23.5344 31.5115 23.708C31.5705 23.8782 31.6556 24.024 31.7667 24.1456C31.8813 24.2671 32.022 24.3626 32.1887 24.4321C32.3554 24.4981 32.5481 24.5311 32.7669 24.5311Z" fill="white"/>
</svg>
