<svg width="45" height="49" viewBox="0 0 45 49" fill="none" xmlns="http://www.w3.org/2000/svg">
<path d="M41.9379 48.5L35.4323 42.0018C34.6512 42.5659 33.8098 42.9806 32.9082 43.246C32.0067 43.5114 31.0806 43.6441 30.1301 43.6441C27.631 43.6441 25.5007 42.7628 23.7393 41.0003C21.9779 39.2378 21.0972 37.1063 21.0972 34.6057C21.0972 32.105 21.9784 29.9753 23.7409 28.2165C25.5034 26.4576 27.635 25.5782 30.1356 25.5782C32.6362 25.5782 34.766 26.4589 36.5248 28.2204C38.2836 29.9818 39.163 32.112 39.163 34.6111C39.163 35.5552 39.0379 36.4899 38.7876 37.4153C38.5372 38.3407 38.1074 39.1734 37.4982 39.9133L44.0188 46.4189L41.9379 48.5ZM30.1189 40.6885C31.8173 40.6885 33.2567 40.1021 34.437 38.9293C35.6173 37.7566 36.2074 36.321 36.2074 34.6225C36.2074 32.924 35.621 31.4846 34.4483 30.3043C33.2755 29.124 31.8399 28.5339 30.1414 28.5339C28.4429 28.5339 27.0035 29.1203 25.8232 30.2931C24.6429 31.4658 24.0528 32.9015 24.0528 34.6C24.0528 36.2984 24.6392 37.7378 25.812 38.9181C26.9847 40.0984 28.4204 40.6885 30.1189 40.6885ZM39.9925 21.4463H37.0369V8.16065C37.0369 7.97966 36.9615 7.81377 36.8106 7.66298C36.6598 7.51214 36.494 7.43672 36.313 7.43672H31.7286V12.7298H8.26395V7.43672H3.67956C3.49857 7.43672 3.33268 7.51214 3.18188 7.66298C3.03105 7.81377 2.95563 7.97966 2.95563 8.16065V40.7941C2.95563 40.975 3.03105 41.1409 3.18188 41.2917C3.33268 41.4426 3.49857 41.518 3.67956 41.518H16.739V44.4736H3.67956C2.64281 44.4736 1.77036 44.1195 1.06222 43.4114C0.354072 42.7033 0 41.8308 0 40.7941V8.16065C0 7.1239 0.354072 6.25145 1.06222 5.54331C1.77036 4.83516 2.64281 4.48109 3.67956 4.48109H15.0546C15.2959 3.33503 15.8782 2.38501 16.8016 1.63103C17.725 0.87701 18.7899 0.5 19.9963 0.5C21.2237 0.5 22.2959 0.87701 23.2128 1.63103C24.1297 2.38501 24.7087 3.33503 24.95 4.48109H36.313C37.3497 4.48109 38.2222 4.83516 38.9303 5.54331C39.6385 6.25145 39.9925 7.1239 39.9925 8.16065V21.4463ZM20.0002 7.7082C20.6038 7.7082 21.1084 7.50405 21.514 7.09573C21.9197 6.68745 22.1226 6.18152 22.1226 5.57795C22.1226 4.97437 21.9184 4.46976 21.5101 4.06411C21.1018 3.65846 20.5959 3.45563 19.9923 3.45563C19.3887 3.45563 18.8841 3.65979 18.4785 4.06811C18.0728 4.47639 17.8699 4.98231 17.8699 5.58589C17.8699 6.18946 18.0741 6.69408 18.4824 7.09973C18.8907 7.50538 19.3967 7.7082 20.0002 7.7082Z" fill="#212529"/>
</svg>
