<svg width="51" height="49" viewBox="0 0 51 49" fill="none" xmlns="http://www.w3.org/2000/svg">
<path d="M18.186 48.5L13.8445 41.1175L5.3953 39.3522L6.27487 30.8906L0.754395 24.5L6.27487 18.1343L5.3953 9.68834L13.8445 7.90744L18.186 0.5L25.8772 3.90902L33.5684 0.5L37.9505 7.90744L46.3746 9.68834L45.4795 18.1343L51 24.5L45.4795 30.8906L46.3746 39.3522L37.9505 41.1175L33.5684 48.4999L25.8772 45.0911L18.186 48.5ZM19.5333 44.5235L25.8772 41.8693L32.3365 44.5235L36.1103 38.5694L43.0063 36.904L42.3482 29.8396L47.0546 24.5L42.3482 19.0855L43.0063 12.0056L36.1103 10.4306L32.2616 4.47652L25.8772 7.13072L19.4179 4.47652L15.644 10.4306L8.74807 12.0056L9.40613 19.0855L4.69972 24.5L9.40613 29.8396L8.74807 36.9788L15.644 38.5694L19.5333 44.5235ZM23.2978 32.0228L36.2257 19.1604L33.9832 17.024L23.2978 27.6595L17.796 22.0517L15.5286 24.2941L23.2978 32.0228Z" fill="#212529"/>
</svg>
